<svg id="visual" viewBox="0 0 900 600" width="900" height="600" xmlns="http://www.w3.org/2000/svg" xmlns:xlink="http://www.w3.org/1999/xlink" version="1.1"><rect x="0" y="0" width="900" height="600" fill="#001220"></rect><path d="M0 388L21.5 389.3C43 390.7 86 393.3 128.8 390.2C171.7 387 214.3 378 257.2 377.7C300 377.3 343 385.7 385.8 397.2C428.7 408.7 471.3 423.3 514.2 432C557 440.7 600 443.3 642.8 438.8C685.7 434.3 728.3 422.7 771.2 412.3C814 402 857 393 878.5 388.5L900 384L900 601L878.5 601C857 601 814 601 771.2 601C728.3 601 685.7 601 642.8 601C600 601 557 601 514.2 601C471.3 601 428.7 601 385.8 601C343 601 300 601 257.2 601C214.3 601 171.7 601 128.8 601C86 601 43 601 21.5 601L0 601Z" fill="#6999fa"></path><path d="M0 416L21.5 416.2C43 416.3 86 416.7 128.8 423.2C171.7 429.7 214.3 442.3 257.2 442.2C300 442 343 429 385.8 432.5C428.7 436 471.3 456 514.2 466.2C557 476.3 600 476.7 642.8 465.5C685.7 454.3 728.3 431.7 771.2 426.8C814 422 857 435 878.5 441.5L900 448L900 601L878.5 601C857 601 814 601 771.2 601C728.3 601 685.7 601 642.8 601C600 601 557 601 514.2 601C471.3 601 428.7 601 385.8 601C343 601 300 601 257.2 601C214.3 601 171.7 601 128.8 601C86 601 43 601 21.5 601L0 601Z" fill="#5381ec"></path><path d="M0 464L21.5 459.8C43 455.7 86 447.3 128.8 453.5C171.7 459.7 214.3 480.3 257.2 482.5C300 484.7 343 468.3 385.8 467.8C428.7 467.3 471.3 482.7 514.2 492.2C557 501.7 600 505.3 642.8 505.2C685.7 505 728.3 501 771.2 497.8C814 494.7 857 492.3 878.5 491.2L900 490L900 601L878.5 601C857 601 814 601 771.2 601C728.3 601 685.7 601 642.8 601C600 601 557 601 514.2 601C471.3 601 428.7 601 385.8 601C343 601 300 601 257.2 601C214.3 601 171.7 601 128.8 601C86 601 43 601 21.5 601L0 601Z" fill="#3e69dd"></path><path d="M0 502L21.5 499.7C43 497.3 86 492.7 128.8 498C171.7 503.3 214.3 518.7 257.2 526.7C300 534.7 343 535.3 385.8 535.7C428.7 536 471.3 536 514.2 534.8C557 533.7 600 531.3 642.8 524C685.7 516.7 728.3 504.3 771.2 496.7C814 489 857 486 878.5 484.5L900 483L900 601L878.5 601C857 601 814 601 771.2 601C728.3 601 685.7 601 642.8 601C600 601 557 601 514.2 601C471.3 601 428.7 601 385.8 601C343 601 300 601 257.2 601C214.3 601 171.7 601 128.8 601C86 601 43 601 21.5 601L0 601Z" fill="#2b50cd"></path><path d="M0 566L21.5 561C43 556 86 546 128.8 545.2C171.7 544.3 214.3 552.7 257.2 551.8C300 551 343 541 385.8 540.7C428.7 540.3 471.3 549.7 514.2 551.3C557 553 600 547 642.8 542.2C685.7 537.3 728.3 533.7 771.2 533.5C814 533.3 857 536.7 878.5 538.3L900 540L900 601L878.5 601C857 601 814 601 771.2 601C728.3 601 685.7 601 642.8 601C600 601 557 601 514.2 601C471.3 601 428.7 601 385.8 601C343 601 300 601 257.2 601C214.3 601 171.7 601 128.8 601C86 601 43 601 21.5 601L0 601Z" fill="#1a37bc"></path></svg>